<svg version="1.2" xmlns="http://www.w3.org/2000/svg" viewBox="0 0 1024.0148517005487 1009.0146341463415" width="1025" height="1010"><defs><clipPath clipPathUnits="userSpaceOnUse" id="cp1"><path d="m1012.49 66.27v884.14c0 15.23-6.07 29.85-16.84 40.62-10.77 10.78-25.37 16.82-40.61 16.82h-884.14c-15.23 0-29.85-6.04-40.62-16.82-10.77-10.77-16.82-25.39-16.82-40.62v-884.14c0-15.24 6.05-29.84 16.82-40.61 10.77-10.77 25.39-16.84 40.62-16.84h884.14c15.24 0 29.84 6.07 40.61 16.84 10.77 10.77 16.84 25.37 16.84 40.61z"/></clipPath><clipPath clipPathUnits="userSpaceOnUse" id="cp2"><path d="m59.95-0.13h903.05c15.88 0 31.14 6.31 42.38 17.55 11.23 11.25 17.56 26.49 17.56 42.39v43.97c0 15.9-6.33 31.14-17.56 42.39-11.24 11.24-26.5 17.55-42.38 17.55h-903.05c-33.1 0-59.94-26.84-59.94-59.94v-43.97c0-33.1 26.84-59.94 59.94-59.94z"/></clipPath><clipPath clipPathUnits="userSpaceOnUse" id="cp3"><path d="m909 47.55h13.76c21.38 0 38.73 17.34 38.73 38.73 0 21.38-17.35 38.71-38.73 38.71h-13.76c-21.39 0-38.73-17.33-38.73-38.71 0-21.39 17.34-38.73 38.73-38.73z"/></clipPath><clipPath clipPathUnits="userSpaceOnUse" id="cp4"><path d="m799.93 47.55h13.75c21.4 0 38.73 17.34 38.73 38.73 0 21.38-17.33 38.71-38.73 38.71h-13.75c-21.38 0-38.73-17.33-38.73-38.71 0-21.39 17.35-38.73 38.73-38.73z"/></clipPath><clipPath clipPathUnits="userSpaceOnUse" id="cp5"><path d="m691.25 47.55h13.75c21.38 0 38.71 17.34 38.71 38.73 0 21.38-17.33 38.71-38.71 38.71h-13.75c-21.4 0-38.73-17.33-38.73-38.71 0-21.39 17.33-38.73 38.73-38.73z"/></clipPath><clipPath clipPathUnits="userSpaceOnUse" id="cp6"><path d="m269.26 224.93l347.64 239.23-106.19 154.32-347.65-239.25z"/></clipPath><clipPath clipPathUnits="userSpaceOnUse" id="cp7"><path d="m884.19 377.96l-336.25 237.29-108-153.05 336.24-237.27z"/></clipPath><clipPath clipPathUnits="userSpaceOnUse" id="cp8"><path d="m523.25 659.81l93.65-101.07h-187.31z"/></clipPath></defs><style>.a{fill:#59981a}.b{fill:#edffcc}.c{fill:#3b5704}</style><g clip-path="url(#cp1)"><path fill-rule="evenodd" class="a" d="m1012.5 8.8v999h-999v-999z"/></g><g clip-path="url(#cp2)"><path fill-rule="evenodd" class="b" d="m0-0.2h1022.8v163.9h-1022.8z"/></g><g clip-path="url(#cp3)"><path fill-rule="evenodd" class="c" d="m870.3 47.6h91.1v77.4h-91.1z"/></g><g clip-path="url(#cp4)"><path fill-rule="evenodd" class="c" d="m761.3 47.6h91v77.4h-91z"/></g><g clip-path="url(#cp5)"><path fill-rule="evenodd" class="a" d="m652.5 47.6h91.1v77.4h-91.1z"/></g><path fill-rule="evenodd" class="b" d="m269.9 224.9v635.9h-187.3v-635.9z"/><path fill-rule="evenodd" class="b" d="m963.9 224.9v635.9h-187.3v-635.9z"/><g clip-path="url(#cp6)"><path fill-rule="evenodd" class="b" d="m269.2 224.9l347.9 239.3-106.3 154.4-347.8-239.3z"/></g><g clip-path="url(#cp7)"><path fill-rule="evenodd" class="b" d="m884.1 378l-336 237.1-107.9-153.1 336-237.1z"/></g><g clip-path="url(#cp8)"><path fill-rule="evenodd" class="b" d="m429.6 558.8h187.1v101.1h-187.1z"/></g></svg>